<?xml version="1.0" standalone="no"?>
<!DOCTYPE svg PUBLIC "-//W3C//DTD SVG 20010904//EN"
 "http://www.w3.org/TR/2001/REC-SVG-20010904/DTD/svg10.dtd">
<svg version="1.0" xmlns="http://www.w3.org/2000/svg"
 width="500.000000pt" height="355.000000pt" viewBox="0 0 500.000000 355.000000"
 preserveAspectRatio="xMidYMid meet">

<g transform="translate(0.000000,355.000000) scale(0.100000,-0.100000)"
fill="#000000" stroke="none">
<path d="M0 1815 l0 -1715 430 0 430 0 0 582 0 581 206 -274 c150 -200 257
-356 396 -581 l191 -308 479 0 c263 0 478 2 478 5 0 3 -241 313 -535 688 -294
375 -535 685 -535 690 0 4 82 5 183 1 207 -8 260 1 383 61 241 118 375 269
458 516 65 193 74 476 21 674 -31 117 -97 262 -159 349 -141 198 -396 353
-676 410 -158 32 -260 36 -1002 36 l-748 0 0 -1715z m1495 1022 c122 -40 215
-126 252 -232 14 -38 18 -81 18 -180 0 -112 -4 -138 -23 -187 -29 -71 -104
-155 -167 -187 -97 -48 -133 -53 -442 -58 l-293 -5 0 437 0 436 303 -3 c248
-3 311 -7 352 -21z"/>
<path d="M3060 1815 l0 -1715 970 0 970 0 0 320 0 320 -550 0 -550 0 0 1395 0
1395 -420 0 -420 0 0 -1715z"/>
</g>
</svg>
